<svg width="16" height="22" viewBox="0 0 16 22" fill="none" xmlns="http://www.w3.org/2000/svg">
<path fill-rule="evenodd" clip-rule="evenodd" d="M4.49651 0.546875H12.8608C13.1622 0.546875 13.4078 0.791904 13.4078 1.09381V18.5959C13.4078 18.8972 13.1622 19.1428 12.8608 19.1428H0.828189C0.526279 19.1428 0.28125 18.8972 0.28125 18.5959V4.76213C0.28125 4.6161 0.338132 4.47882 0.441503 4.37545L4.10982 0.707128C4.21319 0.603757 4.35047 0.546875 4.49651 0.546875ZM0.828189 18.5958H12.8608V1.09376H4.65676V4.64995C4.65676 4.80036 4.53479 4.92233 4.38439 4.92233H0.828189V18.5958ZM4.10982 1.47878V4.37537H1.21323L4.10982 1.47878ZM2.46901 21.3305H15.0486C15.3505 21.3305 15.5955 21.0855 15.5955 20.7836V3.28153H15.0486V20.7836H2.46901V21.3305Z" fill="white"/>
</svg>
