<svg xmlns="http://www.w3.org/2000/svg" fill="none" viewBox="0 0 44 71"><defs/><path fill="#272727" d="M0 70.162l4.052-3.225a1.059 1.059 0 011.317 0L10.475 71l5.105-4.063a1.059 1.059 0 011.317 0L22.002 71l5.105-4.063a1.056 1.056 0 011.318 0L33.528 71l5.104-4.063a1.058 1.058 0 011.318 0L44 70.161V2a2 2 0 00-2-2H2a2 2 0 00-2 2v68.162zm16.747-54.785h22.321a1.053 1.053 0 011.055 1.049 1.053 1.053 0 01-1.055 1.048h-22.32c-.28 0-.548-.11-.746-.307a1.044 1.044 0 010-1.483 1.06 1.06 0 01.745-.307zm0 8.737h22.321a1.053 1.053 0 011.055 1.049 1.053 1.053 0 01-1.055 1.048h-22.32c-.28 0-.548-.11-.746-.307a1.044 1.044 0 010-1.483 1.06 1.06 0 01.745-.307zm0 8.737h22.321a1.053 1.053 0 011.055 1.049 1.053 1.053 0 01-1.055 1.048h-22.32c-.28 0-.548-.11-.746-.307a1.044 1.044 0 010-1.483 1.06 1.06 0 01.745-.307zm0 8.737h22.321a1.053 1.053 0 011.055 1.049 1.053 1.053 0 01-1.055 1.048h-22.32c-.28 0-.548-.11-.746-.307a1.044 1.044 0 010-1.483 1.06 1.06 0 01.745-.307zm-7.293-26.21h3.114a1.047 1.047 0 110 2.096H9.454A1.053 1.053 0 018.4 16.426c0-.278.111-.545.309-.742.197-.196.465-.307.745-.307zm0 8.736h3.114a1.053 1.053 0 011.054 1.049 1.054 1.054 0 01-1.054 1.048H9.454A1.053 1.053 0 018.4 25.163c0-.278.111-.545.309-.742.197-.196.465-.307.745-.307zm0 8.737h3.114a1.053 1.053 0 011.054 1.049 1.054 1.054 0 01-1.054 1.048H9.454A1.053 1.053 0 018.4 33.9c0-.278.111-.545.309-.742.197-.196.465-.307.745-.307zm0 8.737h3.114a1.053 1.053 0 011.054 1.049 1.054 1.054 0 01-1.054 1.048H9.454A1.053 1.053 0 018.4 42.637c0-.278.111-.545.309-.742.197-.196.465-.307.745-.307zm4.268 8.211c.28.002.547.114.743.311a1.043 1.043 0 01-.008 1.483 1.05 1.05 0 01-.746.303h-.012l-2.246-.024c.329.494.561 1.046.686 1.625l1.543.017a1.053 1.053 0 011.048 1.054 1.048 1.048 0 01-1.059 1.043h-.012l-1.542-.017c-.244 1.026-.824 1.942-1.648 2.605s-1.845 1.036-2.905 1.059l4.257 4.089a1.047 1.047 0 01-.714 1.802c-.279.005-.549-.1-.75-.294l-6.16-5.917a1.046 1.046 0 01.743-1.803l2.49.027h.03c.52 0 1.028-.15 1.463-.434.436-.282.779-.684.988-1.158l-4.954-.052a1.058 1.058 0 01-.743-.311 1.047 1.047 0 01.754-1.786h.012l4.954.052a2.666 2.666 0 00-.975-1.187 2.696 2.696 0 00-1.472-.456l-2.49-.027a1.047 1.047 0 01-.743-.312 1.046 1.046 0 01.755-1.785h.011l2.49.027 6.212.066zM4.929 15.377h.412a1.053 1.053 0 011.055 1.049 1.053 1.053 0 01-1.055 1.048H4.93a1.054 1.054 0 01-1.054-1.048c0-.278.111-.545.309-.742a1.06 1.06 0 01.745-.307zm0 8.737h.412a1.053 1.053 0 011.055 1.049 1.053 1.053 0 01-1.055 1.048H4.93a1.054 1.054 0 01-1.054-1.048c0-.278.111-.545.309-.742a1.06 1.06 0 01.745-.307zm0 8.737h.412A1.053 1.053 0 016.396 33.9a1.053 1.053 0 01-1.055 1.048H4.93A1.054 1.054 0 013.876 33.9c0-.278.111-.545.309-.742a1.06 1.06 0 01.745-.307zm0 8.737h.412a1.053 1.053 0 011.055 1.049 1.053 1.053 0 01-1.055 1.048H4.93a1.054 1.054 0 01-1.054-1.048c0-.278.111-.545.309-.742a1.06 1.06 0 01.745-.307z"/></svg>